<?xml version="1.0" standalone="no"?>
<!DOCTYPE svg PUBLIC "-//W3C//DTD SVG 20010904//EN"
 "http://www.w3.org/TR/2001/REC-SVG-20010904/DTD/svg10.dtd">
<svg version="1.0" xmlns="http://www.w3.org/2000/svg"
 width="2000.000000pt" height="540.000000pt" viewBox="0 0 2000.000000 540.000000"
 preserveAspectRatio="xMidYMid meet">

<g transform="translate(0.000000,540.000000) scale(0.100000,-0.100000)"
fill="#000000" stroke="none">
<path d="M1962 2981 c-120 -119 -227 -228 -236 -243 -12 -18 -16 -37 -12 -53
4 -14 92 -112 202 -223 107 -108 210 -213 229 -234 41 -44 63 -42 116 11 68
68 71 61 -125 256 -138 137 -176 180 -176 200 0 20 38 63 176 200 196 195 193
188 125 256 -66 65 -56 71 -299 -170z"/>
<path d="M3293 3144 c-24 -24 -43 -52 -43 -60 0 -9 79 -94 175 -190 134 -133
175 -180 175 -199 0 -19 -41 -66 -175 -199 -96 -96 -175 -181 -175 -190 0 -25
83 -106 110 -106 17 0 78 55 229 207 212 214 251 260 251 293 0 40 -60 105
-374 409 -36 34 -66 67 -66 72 0 5 -15 9 -32 9 -26 0 -42 -10 -75 -46z"/>
<path d="M6268 3136 c-19 -10 -24 -21 -26 -66 -4 -68 10 -80 89 -80 75 0 90
14 86 81 -2 27 -8 54 -14 60 -15 15 -108 18 -135 5z"/>
<path d="M11635 3142 c-11 -1 -30 -5 -42 -8 l-23 -4 0 -359 c0 -344 1 -362 22
-416 11 -31 30 -61 42 -67 11 -6 27 -17 34 -25 10 -10 37 -13 96 -11 l81 3 3
68 3 67 -30 6 c-17 4 -38 15 -48 26 -17 18 -18 49 -20 365 -1 190 -4 348 -7
350 -6 6 -83 10 -111 5z"/>
<path d="M4215 3128 c-3 -7 -4 -206 -3 -443 l3 -430 228 -3 c226 -2 227 -2
275 23 26 14 51 25 57 25 13 0 62 62 74 92 16 43 22 143 11 198 -8 42 -19 64
-49 95 l-39 40 21 31 c12 17 31 44 42 59 15 22 19 44 19 101 -1 63 -4 78 -32
119 -24 36 -45 54 -92 76 l-62 29 -224 0 c-171 0 -226 -3 -229 -12z m414 -167
c25 -23 31 -37 31 -70 0 -59 -30 -87 -104 -96 -57 -7 -132 -2 -144 9 -7 7 -3
166 4 178 3 4 45 8 94 8 83 0 90 -2 119 -29z m-6 -326 c23 -9 57 -76 57 -111
0 -35 -28 -91 -54 -109 -22 -16 -201 -22 -210 -7 -3 5 -6 57 -7 116 -2 84 1
110 12 117 15 11 173 6 202 -6z"/>
<path d="M8515 3131 c-78 -27 -165 -87 -165 -113 0 -5 -9 -22 -21 -37 -19 -25
-21 -39 -17 -112 3 -72 8 -90 33 -126 16 -24 32 -43 35 -43 4 0 23 -11 43 -24
20 -14 53 -28 74 -32 21 -3 67 -14 103 -24 36 -10 82 -21 103 -25 28 -4 40
-12 47 -31 12 -30 13 -84 2 -100 -12 -19 -99 -54 -133 -54 -40 0 -143 37 -188
67 -19 13 -39 23 -46 23 -17 0 -91 -82 -100 -110 -11 -34 40 -72 148 -110 83
-30 95 -32 200 -28 82 2 120 8 142 21 17 9 42 21 56 26 14 5 47 33 72 63 38
45 46 62 52 110 9 70 -1 149 -23 178 -33 44 -87 90 -117 99 -16 6 -48 16 -70
24 -22 8 -69 18 -105 21 -54 6 -72 13 -104 40 -36 30 -38 35 -32 68 5 30 14
40 49 57 24 12 52 21 63 21 15 0 128 -31 205 -56 18 -6 89 70 89 96 0 27 -28
58 -63 69 -19 6 -51 20 -72 31 -32 16 -58 20 -140 19 -55 -1 -109 -4 -120 -8z"/>
<path d="M9110 3064 c-6 -14 -10 -54 -10 -89 0 -54 -3 -66 -20 -75 -11 -6 -24
-19 -30 -30 -14 -26 3 -100 28 -119 18 -15 20 -32 24 -202 4 -209 6 -216 80
-269 36 -27 49 -30 113 -30 42 0 76 5 83 12 7 7 12 35 12 63 0 51 -1 52 -42
71 -31 14 -45 28 -54 54 -14 38 -18 258 -6 277 4 7 24 19 44 28 42 17 58 40
58 83 0 34 -13 47 -57 56 -44 10 -57 29 -50 77 6 45 -6 98 -25 111 -7 4 -41 8
-76 8 -58 0 -63 -2 -72 -26z"/>
<path d="M5060 2890 l-45 -5 0 -315 0 -315 45 -5 c25 -3 65 -3 90 0 l45 5 5
218 5 219 28 24 c31 26 92 33 129 13 48 -26 126 109 86 149 -7 7 -41 12 -84
12 -62 0 -75 -3 -98 -25 -34 -31 -42 -31 -61 -1 -18 27 -64 35 -145 26z"/>
<path d="M6266 2885 c-20 -10 -21 -19 -24 -311 -2 -265 0 -303 14 -314 18 -16
130 -18 145 -3 14 14 14 612 0 626 -13 13 -110 14 -135 2z"/>
<path d="M7320 2892 c-50 -7 -50 -5 -50 -322 0 -245 2 -300 14 -309 22 -18
155 -18 167 0 5 7 9 107 9 220 l0 207 35 31 c43 37 83 40 120 9 37 -33 44 -79
45 -285 0 -109 4 -184 10 -188 17 -10 151 -8 162 3 6 6 10 89 9 224 -2 201 -3
217 -26 278 -23 60 -30 69 -80 99 -50 31 -60 33 -122 29 -53 -3 -76 -9 -101
-28 -33 -24 -34 -24 -47 -6 -8 10 -16 24 -18 30 -4 11 -75 15 -127 8z"/>
<path d="M10865 2886 c-15 -11 -16 -39 -13 -262 l3 -250 30 -36 c55 -67 97
-88 174 -88 55 0 71 4 86 20 23 25 40 25 72 0 20 -16 41 -20 93 -20 43 0 71 5
78 13 12 14 19 614 7 625 -7 8 -128 6 -154 -3 -18 -5 -19 -20 -22 -215 l-4
-209 -29 -30 c-21 -22 -39 -31 -61 -31 -43 0 -61 16 -84 80 -18 48 -21 78 -21
227 0 98 -4 174 -10 178 -19 12 -129 13 -145 1z"/>
<path d="M5665 2881 c-87 -32 -105 -44 -105 -72 0 -17 11 -41 29 -61 28 -32
29 -32 70 -18 23 7 73 14 111 14 63 1 71 -1 100 -29 56 -54 31 -72 -106 -74
-69 -1 -90 -6 -141 -31 -51 -26 -64 -38 -86 -83 -33 -63 -36 -133 -9 -168 10
-13 22 -32 25 -42 4 -9 15 -20 24 -24 10 -3 29 -15 42 -25 35 -27 164 -26 209
2 42 26 54 25 80 -5 19 -22 28 -24 78 -20 31 2 61 8 66 13 5 5 8 121 6 265
l-3 256 -30 31 c-16 18 -39 36 -50 41 -11 6 -31 16 -45 24 -27 16 -226 20
-265 6z m192 -362 c52 -20 58 -65 15 -109 -57 -56 -163 -45 -177 18 -9 45 9
69 63 86 59 18 64 18 99 5z"/>
<path d="M6705 2881 c-107 -39 -119 -53 -96 -114 12 -31 64 -51 93 -36 12 6
57 12 100 13 77 1 81 0 104 -29 13 -16 24 -36 24 -43 0 -21 -46 -32 -132 -32
-68 0 -89 -4 -135 -27 -29 -15 -53 -31 -53 -36 0 -4 -12 -19 -27 -33 -24 -22
-26 -31 -27 -102 -1 -67 2 -81 24 -110 43 -58 98 -82 184 -82 41 0 77 4 81 9
3 5 21 15 40 21 32 11 38 9 65 -13 25 -22 37 -25 86 -22 32 2 61 9 66 17 5 7
8 118 6 249 l-4 235 -29 46 c-23 35 -44 52 -86 72 -51 23 -69 26 -160 25 -57
-1 -113 -4 -124 -8z m202 -373 c42 -39 19 -108 -43 -128 -67 -22 -153 24 -142
76 6 34 77 69 142 73 11 1 30 -9 43 -21z"/>
<path d="M9655 2881 c-107 -39 -119 -53 -96 -114 12 -31 64 -51 93 -36 12 6
57 12 100 13 77 1 81 0 104 -29 13 -16 24 -36 24 -43 0 -21 -46 -32 -132 -32
-68 0 -89 -4 -135 -27 -29 -15 -53 -31 -53 -36 0 -4 -12 -19 -27 -33 -24 -22
-26 -31 -27 -102 -1 -67 2 -81 24 -110 43 -58 98 -82 184 -82 41 0 77 4 81 9
3 5 21 15 40 21 32 11 38 9 65 -13 25 -22 37 -25 86 -22 32 2 61 9 66 17 5 7
8 118 6 249 l-4 235 -29 46 c-23 35 -44 52 -86 72 -51 23 -69 26 -160 25 -57
-1 -113 -4 -124 -8z m202 -373 c42 -39 19 -108 -43 -128 -67 -22 -153 24 -142
76 6 34 77 69 142 73 11 1 30 -9 43 -21z"/>
<path d="M10328 2857 c-102 -57 -141 -135 -141 -287 0 -153 43 -238 147 -291
49 -25 67 -29 139 -29 53 0 91 5 107 15 14 8 36 19 50 25 26 12 80 65 80 79 0
14 -74 68 -103 75 -22 5 -35 1 -58 -19 -85 -71 -189 9 -189 145 0 135 106 218
185 144 22 -20 35 -25 57 -20 29 6 108 62 108 77 0 14 -54 67 -80 79 -14 6
-36 17 -50 25 -17 10 -53 14 -110 14 -76 -1 -91 -4 -142 -32z"/>
</g>
</svg>
